<svg viewBox="0 0 80 80" fill="none" xmlns="http://www.w3.org/2000/svg">
  <defs>
    <linearGradient id="markBg" x1="4" y1="4" x2="4" y2="76" gradientUnits="userSpaceOnUse">
      <stop offset="0%" stop-color="#F5C200" stop-opacity="0.18"/>
      <stop offset="100%" stop-color="#F5C200" stop-opacity="0.06"/>
    </linearGradient>
  </defs>

  <!-- Background -->
  <rect width="80" height="80" rx="18" fill="#111115"/>

  <!-- Mark box -->
  <rect x="4" y="4" width="72" height="72" rx="16" fill="url(#markBg)" stroke="rgba(245,194,0,0.30)" stroke-width="1"/>

  <!-- Icon -->
  <svg x="4" y="4" width="72" height="72" viewBox="0 0 64 64" fill="none">
    <ellipse cx="31" cy="26" rx="22" ry="6.5" stroke="#f0f0f2" stroke-width="3.5"/>
    <path d="M18 31H44L41.5 49C41.1 51.9 38.63 54 35.7 54H26.3C23.37 54 20.9 51.9 20.5 49L18 31Z" fill="rgba(240,240,242,0.48)" stroke="#f0f0f2" stroke-width="3.5"/>
    <path d="M41 12L55 5" stroke="#f0f0f2" stroke-width="3.5" stroke-linecap="round"/>
    <path d="M46 8L58 2" stroke="#F5C200" stroke-width="3.5" stroke-linecap="round"/>
    <path d="M49 16L52 13" stroke="#F5C200" stroke-width="3" stroke-linecap="round"/>
    <path d="M21 17L23 19" stroke="#F5C200" stroke-width="3" stroke-linecap="round"/>
    <path d="M25 12L27 14" stroke="#F5C200" stroke-width="3" stroke-linecap="round"/>
  </svg>
</svg>
